{"glyphs":{":":{"x_min":0,"x_max":202,"ha":202,"o":"m 0 381 q 0 413 23 436 q 46 459 78 459 q 110 459 133 436 q 156 413 156 381 q 156 349 133 326 q 110 303 78 303 q 46 303 23 326 q 0 349 0 381 z m 3 75 q 3 107 26 130 q 49 153 81 153 q 113 153 136 130 q 159 107 159 75 q 159 43 136 20 q 113 -3 81 -3 q 49 -3 26 20 q 3 43 3 75 z"},"$":{"x_min":0,"x_max":569,"ha":569,"o":"m 542 191 q 542 19 508 -22 q 475 -63 328 -63 q 328 -90 329 -108 q 330 -127 331 -144 q 331 -173 317 -182 q 303 -190 253 -190 q 201 -190 189 -184 q 177 -177 177 -143 q 177 -131 178 -101 q 179 -71 179 -63 q 170 -63 159 -63 q 148 -63 135 -64 q 81 -64 49 -52 q 3 -35 3 9 l 3 158 q 3 176 18 192 q 34 207 52 207 l 394 206 l 394 284 l 80 284 q 32 284 14 323 q 1 351 1 409 q 1 424 1 438 q 1 453 2 467 q 2 608 31 646 q 54 677 135 677 q 149 677 164 676 q 180 676 196 676 q 196 703 195 722 q 194 741 193 759 q 193 788 206 796 q 220 804 270 804 q 325 804 336 796 q 346 788 346 738 q 346 730 346 716 q 345 703 345 685 l 345 676 l 393 676 q 475 676 502 662 q 542 641 542 574 q 542 528 520 503 q 498 478 466 478 l 174 478 l 174 400 l 466 400 q 513 400 531 355 q 544 323 544 259 q 544 246 543 223 q 542 200 542 191 z"},"?":{"x_min":0,"x_max":758,"ha":758,"o":"m 723 312 q 723 265 676 232 q 638 205 609 205 l 346 205 l 346 255 q 374 327 400 344 q 427 362 502 362 l 502 461 l 196 461 l 196 362 q 250 362 276 344 q 302 325 302 284 q 302 237 270 218 q 248 205 205 205 q 195 205 186 205 q 176 205 167 206 q 75 206 36 236 q -3 267 -3 326 l -3 675 q -3 721 32 762 q 67 803 104 803 l 595 803 q 629 803 674 759 q 723 711 723 668 z m 360 36 q 404 89 472 89 q 523 89 564 56 q 590 35 604 6 q 617 -22 617 -56 q 617 -82 610 -104 q 602 -126 585 -147 q 564 -173 534 -187 q 504 -201 471 -201 q 421 -201 380 -168 q 327 -124 327 -56 q 327 -5 360 36 z"},"<":{"x_min":0,"x_max":583,"ha":583,"o":"m 55 313 l 55 395 l 529 595 l 529 508 l 153 354 l 529 198 l 529 110 z"},"'":{"x_min":0,"x_max":187,"ha":187,"o":"m 6 720 q 22 759 34 774 q 54 798 84 798 q 114 798 134 776 q 154 754 162 720 q 163 717 163 710 q 163 671 101 624 q 44 581 16 581 q 10 581 10 585 q 9 589 15 597 q 35 624 35 644 q 35 660 20 678 q 4 697 4 708 q 4 716 6 720 z"},"=":{"x_min":0,"x_max":606,"ha":606,"o":"m 27 282 l 486 282 q 524 282 560 260 q 596 238 596 220 q 596 207 570 204 l 105 204 q 102 203 94 203 q 68 203 34 227 q 1 251 1 268 q 1 282 27 282 z m 27 81 l 486 81 q 524 81 560 59 q 596 37 596 19 q 596 6 570 3 l 105 3 q 102 2 94 2 q 68 2 34 26 q 1 50 1 67 q 1 81 27 81 z"},"a":{"x_min":0,"x_max":731,"ha":731,"o":"m 704 -97 q 704 -138 656 -173 q 617 -201 597 -201 l 126 -201 q 74 -201 33 -153 q -3 -111 -3 -75 l -3 339 q -3 382 39 399 q 71 412 133 412 q 148 412 176 411 q 204 410 214 410 q 227 410 254 411 q 282 412 296 412 q 360 412 390 399 q 432 381 432 332 q 432 300 409 280 q 386 260 361 260 l 197 260 l 197 189 l 475 189 l 504 210 l 504 448 l 503 454 l 261 454 q 174 454 174 549 q 174 602 217 620 q 249 633 336 633 q 357 633 380 632 q 402 632 426 632 q 447 632 468 632 q 488 632 508 633 q 617 633 654 616 q 704 593 704 517 z"},"L":{"x_min":0,"x_max":731,"ha":731,"o":"m 710 -5 q 710 -153 660 -179 q 615 -202 350 -202 l 243 -202 q 82 -202 44 -187 q -3 -168 -3 -93 l -3 701 q -3 744 35 776 q 68 804 102 804 q 147 804 180 766 q 208 733 208 701 l 208 177 l 623 177 q 683 177 701 108 q 710 74 710 -5 z"},"3":{"x_min":0,"x_max":781,"ha":781,"o":"m 748 578 q 748 555 748 534 q 748 514 749 496 q 749 431 732 408 q 715 386 641 361 q 706 324 729 281 q 747 247 747 187 q 747 153 746 130 q 745 106 744 85 q 744 -60 723 -116 q 692 -200 599 -200 l 121 -200 q 63 -200 30 -146 q -4 -91 -4 1 q -4 101 30 150 q 65 199 130 199 l 512 199 l 512 266 l 460 266 q 383 266 352 280 q 306 301 306 362 q 306 423 342 443 q 369 458 441 458 q 458 458 476 458 q 493 457 512 457 l 512 531 l 130 531 q 99 531 66 558 q 18 597 18 667 q 18 715 52 759 q 85 803 130 803 l 638 803 q 712 803 733 745 q 748 704 748 578 z"},";":{"x_min":0,"x_max":187,"ha":187,"o":"m 0 444 q 0 476 23 499 q 46 522 78 522 q 110 522 133 499 q 156 476 156 444 q 156 412 133 389 q 110 366 78 366 q 46 366 23 389 q 0 412 0 444 z m 3 132 q 19 171 31 186 q 51 210 81 210 q 111 210 131 188 q 151 166 159 132 q 160 129 160 122 q 160 83 98 36 q 41 -7 13 -7 q 7 -7 6 -3 q 6 1 12 9 q 32 36 32 56 q 32 72 16 90 q 1 109 1 120 q 1 128 3 132 z"},"J":{"x_min":0,"x_max":642,"ha":642,"o":"m 603 -114 q 603 -167 556 -188 q 523 -203 462 -203 q 447 -203 433 -202 q 419 -202 407 -202 q 273 -202 239 -173 q 210 -148 210 -54 l 210 6 q 210 132 236 169 q 257 198 325 198 q 341 198 359 198 q 377 197 396 197 l 396 478 l 93 478 q 26 478 6 534 q -4 563 -4 648 q -4 724 7 756 q 23 803 71 803 l 477 803 q 528 803 568 754 q 603 711 603 677 z"},"V":{"x_min":0,"x_max":773,"ha":773,"o":"m 734 -75 q 734 -111 698 -153 q 657 -201 608 -201 l 240 -201 q 175 -201 147 -127 q 128 -76 128 3 q 128 20 128 32 q 129 44 130 52 q 74 52 37 82 q -3 115 -3 169 l -3 692 q -3 746 57 774 q 108 798 178 798 q 373 798 373 678 l 373 258 q 373 231 392 211 q 404 198 439 177 l 542 177 l 542 722 q 542 748 566 773 q 595 804 638 804 q 679 804 709 772 q 734 745 734 722 z"},"\"":{"x_min":0,"x_max":368,"ha":368,"o":"m 192 720 q 208 759 220 774 q 240 798 270 798 q 300 798 320 776 q 340 754 348 720 q 349 717 349 710 q 349 671 287 624 q 230 581 202 581 q 196 581 196 585 q 195 589 201 597 q 221 624 221 644 q 221 660 206 678 q 190 697 190 708 q 190 716 192 720 z m 9 723 q 25 762 37 777 q 57 801 87 801 q 117 801 137 779 q 157 757 165 723 q 166 720 166 713 q 166 674 104 627 q 47 584 19 584 q 13 584 12 588 q 12 592 18 600 q 38 627 38 647 q 38 663 22 682 q 7 700 7 711 q 7 719 9 723 z"},"7":{"x_min":0,"x_max":719,"ha":719,"o":"m 692 -6 q 692 -141 674 -171 q 655 -201 575 -201 q 554 -201 536 -200 q 519 -200 504 -200 l 492 -200 q 479 -200 468 -200 q 457 -200 448 -201 q 383 -201 347 -185 q 293 -161 293 -99 l 293 478 l 93 478 q 30 478 9 533 q -4 567 -4 645 q -4 751 26 780 q 52 805 141 805 q 164 805 190 804 q 216 804 245 804 q 266 804 288 804 q 310 804 333 805 q 409 805 444 790 q 492 770 492 714 l 492 182 q 625 182 663 152 q 693 128 693 50 q 693 37 692 23 q 692 9 692 -6 z"},"S":{"x_min":0,"x_max":758,"ha":758,"o":"m 724 154 q 724 -18 701 -84 q 664 -191 546 -191 l 108 -191 q 35 -191 11 -129 q -4 -90 -4 6 l -4 44 q -4 103 6 130 q 21 172 64 172 l 524 172 l 524 276 l 101 276 q 37 276 12 333 q -6 374 -6 451 q -6 466 -5 493 q -4 520 -4 529 q -4 542 -4 557 q -4 572 -5 589 q -5 682 13 729 q 41 803 116 803 l 628 803 q 666 803 695 766 q 724 728 724 667 q 724 618 702 583 q 677 543 635 543 l 227 543 l 227 439 l 605 439 q 661 439 690 402 q 726 356 726 244 q 726 226 725 195 q 724 164 724 154 z"},"}":{"x_min":0,"x_max":314,"ha":314,"o":"m 277 300 q 255 289 233 279 q 198 251 198 190 l 198 -116 q 198 -147 175 -169 q 157 -186 119 -201 l 0 -201 l 0 -98 l 107 -98 l 107 698 l 0 698 l 0 798 l 110 798 q 134 798 164 773 q 198 744 198 710 l 198 406 q 198 362 214 337 q 234 306 277 300 z"},"Z":{"x_min":0,"x_max":777,"ha":777,"o":"m 746 -6 q 747 -16 747 -27 q 747 -91 733 -129 q 709 -194 649 -194 l 94 -194 q 56 -194 26 -162 q -3 -129 -3 -97 l -3 353 q -3 394 36 425 q 68 451 94 451 l 507 451 l 529 473 l 529 526 l 94 526 q 39 526 14 574 q -4 609 -4 665 q -4 744 34 779 q 60 803 94 803 l 649 803 q 695 803 719 767 q 748 724 748 623 q 748 606 748 586 q 747 567 746 545 q 746 538 748 511 q 749 484 749 476 q 749 397 730 352 q 702 286 634 286 l 244 286 l 222 263 l 222 181 l 649 181 q 709 181 732 121 q 746 84 746 17 z"},"x":{"x_min":0,"x_max":746,"ha":746,"o":"m 721 17 q 721 -144 678 -180 q 652 -202 536 -202 q 447 -202 405 -184 q 347 -159 347 -91 l 347 109 l 204 109 l 204 -84 q 204 -124 174 -162 q 144 -200 111 -200 q 48 -200 25 -137 q 10 -95 10 -10 l 10 24 q 10 125 42 181 q 62 216 114 239 q 40 239 13 294 q -5 331 -5 406 q -5 418 -4 430 q -4 442 -4 453 q -4 546 6 576 q 25 632 89 632 q 127 632 155 610 q 183 588 183 553 l 183 331 l 333 331 l 333 531 q 333 613 422 627 q 453 632 519 632 q 676 632 695 552 q 701 526 701 407 q 701 287 664 246 q 638 217 562 210 q 678 189 682 186 q 721 158 721 17 z"},")":{"x_min":0,"x_max":229,"ha":229,"o":"m 197 -115 q 197 -143 174 -166 q 152 -188 118 -201 l -1 -201 l -1 -97 l 106 -97 l 106 697 l -1 697 l -1 798 l 109 798 q 133 798 163 773 q 197 744 197 710 z"},"&":{"x_min":0,"x_max":670,"ha":670,"o":"m 641 49 q 641 -29 613 -76 q 585 -122 535 -122 l 128 -122 q 51 -122 24 -51 q 5 -1 5 120 q 5 137 4 166 q 3 195 3 207 q 3 257 18 286 q 38 324 93 355 q 31 376 16 395 q 1 414 1 467 q 1 483 1 501 q 1 519 2 539 q 2 630 6 654 q 19 731 95 731 l 527 731 q 566 731 594 694 q 622 656 622 615 q 622 568 598 538 q 567 499 527 499 l 202 499 l 202 436 q 220 436 238 436 q 256 436 275 437 q 351 437 386 424 q 434 406 434 356 q 434 304 374 286 q 335 274 251 274 l 202 274 l 202 217 l 527 217 q 583 217 612 176 q 641 135 641 49 z m 267 -208 l 267 710 q 267 748 289 784 q 311 820 329 820 q 342 820 345 794 l 345 -130 q 346 -133 346 -141 q 346 -167 322 -200 q 298 -234 281 -234 q 267 -234 267 -208 z"},"_":{"x_min":0,"x_max":1307,"ha":1307,"o":"m 32 -123 l 1226 -123 q 1264 -123 1300 -145 q 1336 -167 1336 -185 q 1336 -198 1310 -201 l 110 -201 q 107 -202 99 -202 q 73 -202 40 -178 q 6 -154 6 -137 q 6 -123 32 -123 z"},"v":{"x_min":0,"x_max":750,"ha":750,"o":"m 712 -100 q 712 -138 674 -171 q 640 -200 612 -200 l 233 -200 q 169 -200 146 -133 q 132 -92 132 -7 q 89 1 68 14 q 3 54 3 145 l 3 168 l 3 187 l 3 202 l 3 215 q 3 234 2 254 q 2 275 2 297 l 2 311 q 2 332 1 370 q 0 408 0 425 q 0 520 28 559 q 65 610 171 610 q 261 610 304 580 q 347 550 347 496 l 347 167 l 526 167 l 526 524 q 526 564 558 591 q 589 618 622 618 q 657 618 686 588 q 712 561 712 538 z"},"O":{"x_min":0,"x_max":715,"ha":715,"o":"m 682 -100 q 682 -145 644 -176 q 611 -203 579 -203 l 93 -203 q 60 -203 28 -166 q -3 -130 -3 -93 l -3 678 q -3 712 28 754 q 64 803 107 803 l 549 803 q 589 803 636 760 q 682 718 682 670 z m 520 251 l 520 472 l 181 472 l 181 258 q 204 204 229 194 q 254 184 350 184 q 454 184 479 196 q 492 202 520 251 z"},"(":{"x_min":0,"x_max":225,"ha":225,"o":"m 197 -198 l 78 -198 q 43 -184 23 -165 q -1 -142 -1 -112 l -1 710 q -1 744 33 773 q 62 798 87 798 l 197 798 l 197 697 l 90 697 l 90 -94 l 197 -94 z"},"C":{"x_min":0,"x_max":773,"ha":773,"o":"m 748 619 q 748 545 707 490 q 666 434 602 434 l 285 434 q 253 434 244 414 q 235 393 235 349 l 235 313 q 235 301 234 290 q 234 278 234 267 q 234 224 247 211 q 260 198 285 198 l 580 198 q 638 198 695 134 q 742 81 742 7 q 742 -74 686 -140 q 631 -205 558 -205 l 204 -205 q 118 -205 54 -128 q -3 -59 -3 14 l -3 670 q -3 720 42 764 q 82 803 115 803 l 602 803 q 651 793 675 777 q 748 729 748 619 z"},"W":{"x_min":0,"x_max":1285,"ha":1285,"o":"m 1256 133 q 1256 84 1208 72 q 1160 60 1160 -36 q 1160 -95 1122 -148 q 1084 -200 1035 -200 l 255 -200 q 184 -200 153 -132 q 129 -80 129 1 q 129 40 63 72 q -3 104 -3 177 l -3 663 q -3 738 56 774 q 105 804 184 804 q 254 804 301 780 q 372 744 372 663 l 372 177 l 542 177 l 542 719 q 542 751 570 776 q 597 800 645 800 q 686 800 717 776 q 748 753 748 719 l 748 177 l 880 177 l 880 660 q 880 716 921 754 q 971 800 1067 800 q 1139 800 1189 775 q 1256 741 1256 675 z"},"A":{"x_min":0,"x_max":773,"ha":773,"o":"m 731 -106 q 731 -140 699 -169 q 667 -198 618 -198 q 575 -198 540 -164 q 506 -131 506 -91 l 506 149 q 506 200 470 226 q 433 252 374 252 q 308 252 269 226 q 230 201 230 149 l 230 -84 q 230 -124 204 -156 q 170 -198 109 -198 q 61 -198 29 -163 q -3 -128 -3 -84 l -3 687 q -3 733 27 768 q 57 803 91 803 l 535 803 q 592 803 662 732 q 731 662 731 599 z m 499 447 l 499 476 l 222 476 l 222 447 q 237 439 250 432 q 264 425 273 425 l 448 425 q 465 425 477 432 q 489 440 499 447 z"},"f":{"x_min":0,"x_max":368,"ha":368,"o":"m 346 641 q 346 526 326 508 q 307 491 182 491 l 182 402 q 267 402 297 386 q 334 366 334 304 q 334 246 297 225 q 272 211 222 211 l 194 211 l 194 -107 q 194 -144 162 -173 q 131 -202 96 -202 q 55 -202 26 -170 q -3 -139 -3 -107 l -3 612 q -3 668 48 694 q 87 714 143 714 q 143 817 153 847 q 169 896 228 896 q 305 896 329 851 q 347 817 347 719 q 347 703 346 686 q 346 669 346 651 z"},"Q":{"x_min":0,"x_max":761,"ha":761,"o":"m 728 -203 l 726 -245 l 712 -274 l 687 -286 l 600 -286 q 577 -279 568 -266 q 552 -243 552 -204 l 99 -204 q 72 -204 36 -169 q -3 -131 -3 -100 l -3 686 q -3 726 42 764 q 86 803 129 803 l 603 803 q 656 803 695 754 q 728 713 728 679 z m 530 87 l 530 467 l 180 467 l 180 189 l 377 189 q 457 189 457 87 z"},"w":{"x_min":0,"x_max":1269,"ha":1269,"o":"m 1250 332 l 1250 266 q 1250 155 1235 121 q 1217 79 1148 62 q 1149 55 1150 46 q 1150 36 1150 20 q 1150 -63 1127 -117 q 1092 -200 1010 -200 l 267 -200 q 188 -200 159 -112 q 143 -63 143 26 q 55 26 25 73 q 2 109 2 205 q 2 221 3 262 q 4 302 4 325 q 4 356 3 386 q 2 415 1 445 q 1 541 29 582 q 67 638 175 638 q 245 638 297 602 q 354 562 354 500 l 354 186 l 536 186 l 536 536 q 536 576 572 603 q 600 624 623 624 q 655 624 683 599 q 711 574 711 551 l 711 186 l 878 186 l 878 514 q 878 563 923 598 q 975 638 1064 638 q 1181 638 1222 576 q 1252 531 1252 427 q 1252 401 1251 369 q 1250 337 1250 332 z"},"-":{"x_min":0,"x_max":640,"ha":640,"o":"m 53 81 l 512 81 q 550 81 586 59 q 622 37 622 19 q 622 6 596 3 l 131 3 q 128 2 120 2 q 94 2 60 26 q 27 50 27 67 q 27 81 53 81 z"},"E":{"x_min":0,"x_max":738,"ha":738,"o":"m 722 -103 q 722 -130 689 -164 q 652 -202 616 -202 l 109 -202 q 67 -202 30 -162 q -3 -126 -3 -95 l -3 738 q -3 759 8 777 q 24 803 55 803 l 577 803 q 611 793 627 781 q 678 744 678 673 q 678 616 640 576 q 603 535 555 535 l 207 535 l 207 462 l 244 462 q 295 462 316 452 q 336 441 359 397 l 359 281 l 229 281 l 229 216 l 613 216 q 657 216 692 182 q 722 153 722 129 z"},"s":{"x_min":0,"x_max":723,"ha":723,"o":"m 695 -114 q 695 -149 662 -177 q 633 -202 608 -202 l 77 -202 q 27 -202 8 -152 q -4 -120 -4 -54 l -4 -19 q -4 -10 -4 1 q -4 12 -5 25 q -5 83 8 115 q 28 163 77 163 l 499 163 l 499 265 l 84 265 q 29 265 9 314 q -4 346 -4 414 l -4 447 q -4 535 3 563 q 16 614 62 614 l 630 614 q 659 614 676 592 q 694 569 694 538 q 694 500 672 477 q 650 454 615 454 l 222 454 l 222 352 l 608 352 q 640 352 671 320 q 695 296 695 265 z"},">":{"x_min":0,"x_max":583,"ha":583,"o":"m 529 313 l 55 110 l 55 198 l 430 354 l 55 508 l 55 595 l 529 395 z"},"l":{"x_min":0,"x_max":326,"ha":326,"o":"m 296 -120 q 296 -174 247 -191 q 221 -200 148 -200 l 130 -200 q 76 -200 47 -188 q -2 -168 -2 -116 l -2 815 q -2 834 17 857 q 41 886 76 886 q 107 886 130 862 q 154 839 154 815 l 154 614 q 190 607 226 601 q 296 575 296 512 z"},"8":{"x_min":0,"x_max":754,"ha":754,"o":"m 721 -97 q 721 -140 681 -172 q 646 -200 618 -200 l 108 -200 q 61 -200 26 -152 q -3 -112 -3 -82 l -3 279 q -3 332 86 375 q 31 398 18 420 q 4 442 4 500 q 4 516 4 535 q 4 554 5 575 l 5 611 q 5 695 22 737 q 49 803 123 803 l 603 803 q 680 803 708 735 q 726 691 726 605 l 726 567 q 726 548 727 519 q 728 490 728 480 q 728 437 716 416 q 701 391 654 360 q 662 351 686 331 q 721 302 721 271 z m 521 515 l 219 515 l 219 493 q 231 472 241 463 q 257 448 278 448 l 485 448 q 497 461 509 475 q 514 482 521 515 z m 507 182 l 507 212 q 486 242 472 250 q 457 257 423 257 q 404 257 387 256 q 370 256 355 256 q 341 256 318 257 q 296 258 288 258 q 251 258 236 246 q 216 230 204 182 z"},"\\":{"x_min":0,"x_max":517,"ha":517,"o":"m 474 -123 q 500 -123 500 -137 q 500 -154 466 -178 q 431 -203 406 -203 q 402 -203 396 -201 l 27 720 q 1 723 1 736 q 1 754 38 776 q 74 798 111 798 z"},"e":{"x_min":0,"x_max":738,"ha":738,"o":"m 707 93 q 707 34 665 15 q 634 1 552 1 q 538 1 523 1 q 508 1 492 2 l 483 2 l 439 2 q 331 2 300 27 q 268 52 268 105 q 268 156 303 175 q 329 189 383 189 q 397 189 410 188 q 424 188 438 188 q 473 188 490 195 q 508 202 508 225 q 508 241 492 252 q 476 262 465 262 l 216 262 l 216 -24 l 619 -24 q 649 -24 670 -48 q 692 -73 692 -111 q 692 -145 674 -172 q 656 -198 626 -198 l 85 -198 q 63 -198 30 -165 q -3 -132 -3 -104 l -3 510 q -3 544 36 586 q 76 627 121 627 l 612 627 q 653 627 682 592 q 707 562 707 532 z"},"b":{"x_min":0,"x_max":715,"ha":715,"o":"m 689 -48 q 689 -143 600 -178 q 539 -202 418 -202 q 397 -202 378 -202 q 358 -201 340 -201 l 284 -201 q 165 -201 103 -184 q 4 -157 4 -84 l 7 848 q 7 885 22 906 q 46 939 107 939 q 171 939 191 905 q 208 876 208 789 q 208 772 207 724 q 206 676 206 644 l 545 644 q 607 644 651 589 q 689 542 689 500 z m 376 300 q 376 367 372 376 q 359 389 343 410 l 213 410 l 213 188 l 329 188 q 363 188 370 202 q 376 216 376 300 z"},"%":{"x_min":0,"x_max":811,"ha":811,"o":"m 773 645 q 773 565 761 533 q 740 478 676 478 l 476 478 l 476 -99 q 476 -161 423 -185 q 388 -201 321 -201 q 308 -201 297 -200 q 286 -200 277 -200 q 254 -200 234 -200 q 213 -200 194 -201 q 115 -201 96 -170 q 77 -140 77 -6 q 77 9 76 23 q 76 37 76 51 q 76 129 105 152 q 143 182 277 182 l 277 714 q 277 769 325 790 q 360 805 436 805 q 458 805 480 804 q 502 804 524 804 q 553 804 580 804 q 606 804 631 805 q 719 805 743 781 q 773 751 773 645 z m 54 720 q 54 752 77 775 q 100 798 132 798 q 164 798 187 775 q 210 752 210 720 q 210 688 187 665 q 164 642 132 642 q 100 642 77 665 q 54 688 54 720 z m 540 -120 q 540 -88 563 -65 q 586 -42 618 -42 q 650 -42 673 -65 q 696 -88 696 -120 q 696 -152 673 -175 q 650 -198 618 -198 q 586 -198 563 -175 q 540 -152 540 -120 z"},"m":{"x_min":0,"x_max":1269,"ha":1269,"o":"m 1240 114 q 1240 90 1241 47 q 1242 4 1242 -14 q 1242 -111 1210 -149 q 1169 -198 1050 -198 q 968 -198 927 -178 q 876 -153 876 -91 l 876 274 l 726 274 l 726 -119 q 726 -143 698 -170 q 671 -198 636 -198 q 598 -198 569 -168 q 540 -138 540 -105 l 540 274 l 361 274 l 361 -93 q 361 -146 313 -177 q 265 -208 182 -208 q 69 -208 24 -156 q -3 -125 -3 -79 l -3 496 q -3 557 54 602 q 101 639 140 639 l 1018 639 q 1067 639 1105 602 q 1140 568 1140 532 l 1140 367 q 1205 367 1225 341 q 1242 318 1242 244 q 1242 230 1241 187 q 1240 144 1240 114 z"},"#":{"x_min":0,"x_max":472,"ha":472,"o":"m 438 445 l 355 445 l 355 387 l 259 387 l 259 445 l 170 445 l 170 387 l 74 387 l 74 445 l 3 445 l 3 560 l 74 560 l 74 617 l 3 617 l 3 733 l 74 733 l 74 803 l 170 803 l 170 733 l 259 733 l 259 803 l 355 803 l 355 733 l 438 733 l 438 617 l 355 617 l 355 560 l 438 560 z m 253 566 l 253 611 l 176 611 l 176 566 z"},",":{"x_min":0,"x_max":187,"ha":187,"o":"m 6 -72 q 22 -33 34 -18 q 54 6 84 6 q 114 6 134 -16 q 154 -38 162 -72 q 163 -75 163 -82 q 163 -121 101 -168 q 44 -211 16 -211 q 10 -211 10 -207 q 9 -203 15 -195 q 35 -168 35 -148 q 35 -132 20 -114 q 4 -95 4 -84 q 4 -76 6 -72 z"},"n":{"x_min":0,"x_max":734,"ha":734,"o":"m 704 -86 q 704 -162 645 -186 q 611 -200 524 -200 q 427 -200 390 -184 q 336 -161 336 -93 l 336 254 l 221 254 l 221 -93 q 221 -132 194 -163 q 162 -200 108 -200 q 59 -200 25 -170 q -3 -145 -3 -107 l -3 529 q -3 567 34 602 q 71 637 120 637 l 553 637 q 611 637 659 585 q 704 536 704 485 z"},"h":{"x_min":0,"x_max":707,"ha":707,"o":"m 677 -124 q 677 -154 651 -176 q 629 -194 598 -194 q 565 -194 542 -168 q 519 -143 519 -117 l 519 259 l 355 259 l 355 -109 q 355 -161 305 -181 q 272 -194 209 -194 l 179 -194 q 61 -194 29 -170 q -3 -146 -3 -95 l -3 803 q -1 815 -1 821 q 2 840 5 851 q 13 876 24 885 q 29 894 36 900 q 43 905 52 910 q 79 925 96 922 q 103 924 116 921 q 130 918 142 913 q 169 900 177 885 q 182 880 187 871 q 189 866 194 850 q 195 846 196 836 q 196 825 197 817 q 197 809 197 808 q 197 806 197 803 l 197 624 l 569 624 q 615 624 649 587 q 677 556 677 531 z"},"z":{"x_min":0,"x_max":746,"ha":746,"o":"m 714 -6 q 714 -110 703 -142 q 682 -202 608 -202 l 110 -202 q 46 -202 20 -143 q 1 -99 1 -14 q 1 15 2 41 q 3 67 4 93 q 4 133 3 158 q 2 182 1 204 q 1 286 19 325 q 43 378 107 378 l 488 378 l 510 400 l 510 481 l 63 481 q 34 481 15 505 q -4 529 -4 558 q -4 590 16 612 q 35 635 63 635 l 620 635 q 685 635 704 578 q 714 548 714 459 q 714 368 699 332 q 678 283 620 283 l 217 283 l 195 261 l 195 180 l 605 180 q 671 180 697 129 q 715 94 715 34 q 715 22 714 12 q 714 2 714 -6 z"},"B":{"x_min":0,"x_max":723,"ha":723,"o":"m 684 -137 q 684 -156 662 -176 q 639 -195 619 -195 l 120 -195 q 65 -195 27 -140 q -3 -96 -3 -65 l -3 680 q -3 717 24 754 q 60 803 120 803 l 590 803 q 621 803 652 776 q 684 750 684 723 l 684 434 q 631 434 604 415 q 576 396 576 351 q 576 301 611 282 q 637 268 684 268 z m 513 475 l 513 521 l 228 521 l 228 485 q 236 472 242 463 q 247 454 253 447 l 490 447 z m 503 195 l 500 223 l 474 246 l 252 246 q 240 235 236 225 q 232 215 228 195 z"},"K":{"x_min":0,"x_max":773,"ha":773,"o":"m 744 102 q 744 -54 735 -96 q 713 -200 546 -200 l 524 -200 q 452 -200 412 -182 q 346 -152 346 -74 l 346 172 l 227 172 l 227 -104 q 227 -142 196 -171 q 165 -200 112 -200 q 63 -200 30 -167 q -3 -134 -3 -89 l -3 796 l 175 796 q 220 769 234 747 q 242 735 242 714 l 242 417 l 368 417 l 368 699 q 368 728 401 762 q 434 796 465 796 l 643 796 q 688 796 718 753 q 740 721 740 699 l 740 476 q 740 455 722 432 q 700 404 658 380 q 711 355 731 305 q 746 268 746 201 q 746 186 745 153 q 744 120 744 102 z"},"R":{"x_min":0,"x_max":777,"ha":777,"o":"m 746 511 q 746 494 746 477 q 746 460 747 443 q 747 308 694 268 q 648 233 545 233 l 545 135 q 670 135 704 99 q 732 69 732 -39 q 732 -131 710 -170 q 689 -208 635 -208 l 409 -208 q 362 -208 345 -158 q 332 -120 332 -33 q 332 -13 333 31 q 334 75 334 98 q 334 131 334 169 q 333 207 333 249 q 333 271 333 288 q 333 304 334 308 q 344 359 405 378 q 484 402 515 443 l 515 488 l 161 488 l 161 421 l 199 421 q 242 421 257 414 q 272 408 297 376 l 297 293 l 206 293 l 206 -121 q 206 -153 176 -178 q 147 -204 101 -204 q 53 -204 24 -174 q -4 -145 -4 -106 l -4 654 q -4 745 69 781 q 122 807 231 807 q 264 807 296 806 q 328 805 360 804 q 534 804 584 800 q 633 796 657 781 q 712 746 733 693 q 748 655 748 592 q 748 578 747 551 q 746 524 746 511 z"},"T":{"x_min":0,"x_max":742,"ha":742,"o":"m 720 639 q 720 558 692 520 q 670 490 631 490 l 452 490 l 452 -197 l 318 -197 q 289 -180 271 -162 q 243 -134 243 -107 l 243 490 q 222 490 196 490 q 170 489 140 488 q 60 488 32 513 q -4 545 -4 643 q -4 734 31 773 q 58 803 109 803 l 609 803 q 673 803 700 747 q 720 706 720 639 z"},"P":{"x_min":0,"x_max":769,"ha":769,"o":"m 746 549 q 746 331 706 285 q 662 234 461 234 l 418 234 q 331 234 299 248 q 252 269 252 332 q 252 370 278 396 q 303 421 342 421 l 552 421 l 552 488 l 214 488 l 214 -97 q 214 -135 187 -166 q 156 -202 105 -202 q 54 -202 23 -170 q -3 -144 -3 -112 l -3 698 q -3 743 36 775 q 70 803 102 803 l 653 803 q 718 803 736 729 q 746 688 746 549 z"},"|":{"x_min":0,"x_max":104,"ha":104,"o":"m 0 -208 l 0 710 q 0 748 22 784 q 44 820 62 820 q 75 820 78 794 l 78 -130 q 79 -133 79 -141 q 79 -167 55 -200 q 31 -234 14 -234 q 0 -234 0 -208 z"},"t":{"x_min":0,"x_max":353,"ha":353,"o":"m 354 549 q 354 509 328 478 q 301 448 268 448 l 184 448 q 183 444 183 434 q 183 425 183 419 q 183 402 183 388 q 183 373 184 362 q 184 300 220 272 q 250 249 306 249 l 306 -93 q 306 -152 255 -178 q 216 -198 150 -198 q 72 -198 33 -168 q -1 -142 -1 -97 l -1 790 q -1 831 33 862 q 55 882 97 902 l 167 902 l 167 647 l 268 647 q 301 647 329 616 q 354 589 354 549 z"},"M":{"x_min":0,"x_max":1300,"ha":1300,"o":"m 1273 -111 q 1273 -171 1228 -192 q 1196 -207 1128 -207 q 1115 -207 1102 -206 q 1089 -206 1077 -206 q 1066 -206 1055 -206 q 1044 -206 1032 -207 q 955 -207 918 -190 q 858 -163 858 -89 l 858 477 l 709 477 l 709 -111 q 709 -143 685 -169 q 656 -200 609 -200 q 569 -200 539 -173 q 509 -146 509 -111 l 509 477 l 375 477 l 375 -89 q 375 -157 313 -185 q 267 -206 182 -206 q 83 -206 37 -173 q -3 -144 -3 -89 l -3 655 q -3 699 34 747 q 77 803 131 803 l 984 803 q 1035 803 1062 771 q 1088 739 1088 638 l 1088 588 q 1190 588 1236 550 q 1273 519 1273 462 z"},"g":{"x_min":0,"x_max":711,"ha":711,"o":"m 686 -267 q 686 -325 638 -369 q 596 -407 559 -407 l 102 -407 q 40 -407 18 -354 q 4 -320 4 -243 l 4 -210 l 4 -172 q 4 -84 24 -60 q 45 -35 88 -35 l 482 -35 l 482 233 l 180 233 l 180 169 l 384 169 l 384 1 l 67 1 q 42 15 33 21 q 4 41 4 71 l 4 528 q 4 548 28 570 q 51 591 74 591 l 559 591 q 620 591 658 529 q 686 483 686 450 z"},"j":{"x_min":0,"x_max":476,"ha":476,"o":"m 431 -274 q 431 -354 362 -380 q 320 -396 228 -396 q 113 -396 58 -360 q 4 -323 4 -244 q 4 -171 45 -135 q 93 -93 221 -93 l 221 505 q 221 544 252 572 q 283 600 325 600 q 366 600 398 572 q 431 544 431 505 z m 324 892 q 366 892 395 863 q 424 834 424 792 q 424 750 395 721 q 366 692 324 692 q 282 692 253 721 q 224 750 224 792 q 224 834 253 863 q 282 892 324 892 z"},"i":{"x_min":0,"x_max":337,"ha":337,"o":"m 308 -199 l 86 -199 q 51 -188 26 -162 q 2 -136 2 -108 l 2 543 q 2 566 27 594 q 57 628 96 628 q 134 628 165 597 q 192 570 192 543 l 192 342 q 262 342 290 312 q 308 293 308 265 z m 108 888 q 150 888 179 859 q 208 830 208 788 q 208 746 179 717 q 150 688 108 688 q 66 688 37 717 q 8 746 8 788 q 8 830 37 859 q 66 888 108 888 z"},"y":{"x_min":0,"x_max":758,"ha":758,"o":"m 710 -244 q 710 -290 666 -324 q 630 -352 602 -352 l 126 -352 q 57 -352 32 -290 q 16 -250 16 -174 q 16 -80 46 -37 q 73 2 126 2 l 552 2 l 552 88 l 97 88 q 57 88 28 126 q 3 159 3 189 l 3 536 q 3 609 63 632 q 97 645 186 645 q 288 645 333 614 q 371 588 371 536 l 371 254 l 552 254 l 552 550 q 552 579 576 602 q 599 626 645 644 l 710 644 z"},"@":{"x_min":0,"x_max":869,"ha":869,"o":"m 836 -99 q 836 -137 798 -169 q 761 -201 728 -201 l 124 -201 q 72 -201 34 -154 q 3 -115 3 -87 l 3 727 q 3 760 40 784 q 70 803 92 803 l 728 803 q 773 803 806 770 q 836 740 836 708 z m 690 -17 l 690 568 q 690 584 677 598 q 664 612 646 612 l 366 612 q 357 597 352 588 q 346 578 346 575 q 346 566 358 554 q 370 542 385 542 l 518 542 q 568 542 588 506 q 602 481 602 429 q 602 418 601 398 q 600 378 600 371 q 600 244 578 225 q 555 206 407 206 q 394 206 368 205 q 342 204 330 204 q 275 204 252 218 q 220 237 220 289 q 220 333 250 351 q 272 364 316 364 q 325 364 344 363 q 363 362 371 362 q 396 362 408 367 q 419 372 419 388 q 419 398 414 409 q 406 423 404 428 l 213 428 q 197 428 180 408 q 162 387 162 371 l 162 46 q 162 18 182 0 q 203 -17 232 -17 z"},".":{"x_min":0,"x_max":194,"ha":194,"o":"m 3 -123 q 3 -91 26 -68 q 49 -45 81 -45 q 113 -45 136 -68 q 159 -91 159 -123 q 159 -155 136 -178 q 113 -201 81 -201 q 49 -201 26 -178 q 3 -155 3 -123 z"},"p":{"x_min":0,"x_max":715,"ha":715,"o":"m 695 75 q 695 27 659 10 q 631 -3 563 -3 q 545 -3 526 -2 q 508 -2 489 -2 l 478 -2 q 466 -2 438 -3 q 411 -4 397 -4 q 319 -4 290 19 q 266 38 266 76 q 266 100 290 122 q 315 145 338 145 l 499 145 l 499 229 l 183 229 l 183 -16 q 254 -16 286 -40 q 325 -69 325 -161 q 325 -174 324 -188 q 324 -201 324 -215 q 324 -345 299 -376 q 274 -408 162 -408 l 138 -408 q 80 -408 50 -395 q 1 -374 1 -317 l 1 482 q 1 527 45 560 q 81 587 113 587 l 562 587 q 620 587 661 537 q 695 496 695 461 z"},"X":{"x_min":0,"x_max":746,"ha":746,"o":"m 728 88 q 728 25 728 -18 q 728 -61 729 -99 q 716 -163 668 -185 q 627 -204 528 -204 q 469 -204 420 -179 q 355 -146 355 -81 l 355 233 l 202 233 l 202 -62 q 202 -149 178 -181 q 162 -202 128 -202 l 112 -202 q 49 -202 27 -153 q 10 -116 10 -21 q 10 4 11 66 q 12 127 12 128 l 12 198 q 12 280 25 303 q 38 326 107 365 q 31 405 21 416 q -3 440 -3 474 l -3 723 q -3 763 42 787 q 57 795 88 804 q 126 804 156 772 q 187 741 187 708 l 187 511 l 333 511 l 333 701 q 333 771 396 792 q 432 804 522 804 q 641 804 681 761 q 710 730 710 652 q 710 638 710 624 q 709 609 709 594 l 708 426 q 696 390 658 374 q 621 357 567 357 q 620 345 674 334 q 717 317 729 261 q 729 234 728 201 q 728 168 728 119 z"},"*":{"x_min":0,"x_max":500,"ha":500,"o":"m 241 510 q 241 540 228 577 q 211 625 211 643 q 211 667 222 680 q 233 694 252 694 q 267 694 278 680 q 290 667 290 644 q 290 620 278 583 q 266 546 261 510 q 286 525 310 551 q 341 587 359 599 q 376 608 392 608 q 408 608 418 597 q 428 588 430 571 q 430 555 414 539 q 398 526 333 511 q 295 502 271 492 q 292 480 341 471 q 390 462 409 445 q 428 428 428 410 q 428 395 418 384 q 407 374 392 374 q 376 374 360 384 q 343 393 311 430 q 292 451 261 475 q 261 449 272 414 q 290 357 290 335 q 290 317 279 303 q 268 289 253 289 q 235 289 222 302 q 210 314 210 336 q 210 359 222 392 l 236 438 l 241 475 q 214 457 191 432 q 173 413 160 400 q 146 387 136 380 q 126 374 111 374 q 94 374 82 385 q 71 396 71 410 q 71 422 80 434 q 89 447 111 458 l 171 473 q 201 479 230 492 q 201 505 167 512 q 106 526 93 535 q 71 551 71 574 q 71 588 82 598 q 93 609 107 609 q 123 609 142 599 q 149 594 162 584 q 174 573 187 558 q 213 527 241 510 z"},"Y":{"x_min":0,"x_max":758,"ha":758,"o":"m 731 384 q 731 328 679 304 q 639 286 566 286 l 566 -87 q 566 -126 534 -162 q 503 -199 469 -199 l 267 -199 q 236 -199 209 -174 q 169 -136 169 -102 l 169 152 q 100 152 60 168 q 4 190 4 241 l 4 721 q 4 741 28 768 q 61 804 112 804 q 158 804 194 776 q 229 747 229 706 l 229 414 l 349 414 l 349 691 q 349 763 417 789 q 457 804 539 804 q 550 805 557 805 q 644 805 688 779 q 731 753 731 706 z"},"c":{"x_min":0,"x_max":742,"ha":742,"o":"m 720 -96 q 720 -122 693 -156 q 662 -195 630 -195 l 96 -195 q 52 -195 21 -146 q -3 -108 -3 -81 l -3 569 q -3 592 19 620 q 48 657 92 657 l 603 657 q 649 657 682 617 q 712 581 712 544 q 712 490 673 457 q 641 430 603 430 l 231 430 l 231 204 l 618 204 q 658 204 691 167 q 720 135 720 109 z"},"!":{"x_min":0,"x_max":337,"ha":337,"o":"m 306 176 q 306 153 281 125 q 251 91 212 91 q 174 91 143 122 q 116 149 116 176 l 116 377 q 46 377 18 407 q 0 426 0 454 l 0 801 l 222 801 q 257 790 282 764 q 306 738 306 710 z m 210 3 q 252 3 282 -27 q 312 -57 312 -99 q 312 -141 282 -171 q 252 -201 210 -201 q 168 -201 138 -171 q 108 -141 108 -99 q 108 -57 138 -27 q 168 3 210 3 z"},"/":{"x_min":0,"x_max":517,"ha":517,"o":"m 30 -123 l 393 798 q 431 798 467 776 q 503 754 503 736 q 503 723 477 720 l 108 -201 q 105 -202 97 -202 q 71 -202 38 -178 q 4 -154 4 -137 q 4 -123 30 -123 z"},"[":{"x_min":0,"x_max":225,"ha":225,"o":"m 199 -198 l 2 -198 l 2 795 l 199 795 l 199 695 l 93 695 l 93 -95 l 199 -95 z"},"6":{"x_min":0,"x_max":727,"ha":727,"o":"m 696 637 q 696 575 668 530 q 636 479 580 479 l 203 479 l 203 198 l 506 198 l 506 265 q 489 265 457 264 q 425 263 411 263 q 344 263 315 276 q 276 294 276 342 q 276 373 296 396 q 317 420 344 420 l 683 420 l 683 -16 q 671 -139 579 -178 q 511 -207 328 -207 q 157 -207 94 -184 q -3 -148 -3 -38 l -3 648 q -3 722 66 768 q 118 803 159 803 l 565 803 q 625 803 662 753 q 696 707 696 637 z"},"r":{"x_min":0,"x_max":619,"ha":619,"o":"m 590 448 q 590 366 578 331 q 559 275 503 275 l 195 275 l 195 -106 q 195 -144 164 -174 q 137 -200 96 -200 q 58 -200 29 -170 q 4 -144 4 -121 l 4 517 q 4 549 41 588 q 78 627 114 627 l 503 627 q 560 627 579 561 q 590 524 590 448 z"},"2":{"x_min":0,"x_max":731,"ha":731,"o":"m 707 -75 q 707 -155 622 -183 q 565 -202 436 -202 q 414 -202 393 -202 q 372 -201 351 -201 q 331 -201 310 -201 q 290 -201 269 -202 q 105 -202 51 -170 q -3 -137 -3 -75 l -3 276 q -3 332 51 353 q 79 358 107 364 q 110 366 140 417 q 164 459 216 459 l 480 459 l 480 525 l 77 525 q 37 525 18 548 q -4 574 -4 647 q -4 715 32 759 q 68 803 129 803 l 546 803 q 640 803 678 730 q 706 677 706 573 q 706 461 679 422 q 638 396 597 371 q 585 335 573 299 q 551 269 509 269 l 216 269 l 216 196 l 597 196 q 628 196 668 160 q 707 125 707 86 z"},"{":{"x_min":0,"x_max":314,"ha":314,"o":"m 288 -201 l 169 -201 q 131 -186 113 -169 q 90 -148 90 -116 l 90 190 q 90 251 55 279 q 17 297 11 300 q 55 306 74 336 q 90 361 90 406 l 90 710 q 90 744 124 773 q 153 798 178 798 l 288 798 l 288 698 l 181 698 l 181 -98 l 288 -98 z"},"9":{"x_min":0,"x_max":758,"ha":758,"o":"m 718 -107 q 718 -151 683 -179 q 655 -202 630 -202 l 85 -202 q 29 -202 9 -144 q -4 -107 -4 -34 l -4 -5 l -4 20 q -4 84 9 120 q 30 178 85 178 l 505 178 l 505 479 l 174 479 l 174 413 l 365 413 q 389 413 417 392 q 452 365 452 325 q 452 291 426 264 q 401 236 380 236 l 85 236 q 43 236 17 278 q -3 310 -3 332 l -3 707 q -3 745 30 776 q 59 803 85 803 l 630 803 q 666 803 694 766 q 718 734 718 707 z"}," ":{"x_min":0,"x_max":500,"ha":500,"o":""},"I":{"x_min":0,"x_max":391,"ha":391,"o":"m 360 -87 q 360 -159 299 -187 q 258 -206 179 -206 q 79 -206 32 -164 q -2 -133 -2 -87 l -2 716 q -2 740 21 767 q 51 802 95 802 q 134 802 163 775 q 192 748 192 716 l 192 473 q 250 460 308 447 q 360 417 360 358 z"},"H":{"x_min":0,"x_max":750,"ha":750,"o":"m 707 -104 q 707 -145 670 -176 q 637 -204 604 -204 q 560 -204 530 -171 q 501 -138 501 -104 l 501 242 l 352 242 l 352 -133 q 352 -176 304 -193 q 271 -205 220 -205 q 196 -204 192 -204 l 177 -204 q 113 -204 69 -188 q -3 -162 -3 -97 l -3 718 q -3 745 21 768 q 50 796 96 796 q 133 796 164 774 q 196 752 196 718 l 196 412 l 487 412 l 487 711 q 487 738 510 766 q 541 804 596 804 q 641 804 674 771 q 707 738 707 696 z"},"4":{"x_min":0,"x_max":711,"ha":711,"o":"m 686 299 q 686 161 592 159 q 497 157 497 88 l 497 -79 q 497 -118 459 -160 q 421 -202 381 -202 l 236 -202 q 203 -202 166 -167 q 128 -132 128 -94 l 128 165 l -3 165 l -3 694 q -3 733 24 764 q 52 796 98 796 q 139 796 171 766 q 200 739 200 709 l 200 462 q 200 438 218 418 q 237 398 269 398 q 298 398 318 417 q 338 436 338 462 l 338 812 q 338 843 360 864 q 383 884 425 884 q 465 884 490 854 q 512 828 512 797 l 512 462 q 631 462 658 436 q 686 409 686 299 z"},"~":{"x_min":0,"x_max":583,"ha":583,"o":"m 42 272 l 42 372 q 94 431 178 431 q 208 431 240 422 q 272 414 332 388 q 365 374 382 370 q 399 365 416 365 q 448 365 482 384 q 516 403 542 432 l 542 329 q 511 299 479 286 q 447 273 407 273 q 377 273 350 280 q 324 287 266 312 q 208 338 170 338 q 139 338 111 325 q 83 312 42 272 z"},"D":{"x_min":0,"x_max":742,"ha":742,"o":"m 713 -53 q 713 -93 672 -140 q 625 -193 572 -193 l -3 -193 l -3 803 l 572 803 q 629 803 674 756 q 713 715 713 678 z m 538 436 q 538 455 528 463 q 519 471 499 471 l 211 471 l 211 197 l 488 197 l 511 197 q 525 199 532 206 q 538 212 538 234 q 538 258 538 320 q 538 381 538 436 z"},"^":{"x_min":0,"x_max":469,"ha":469,"o":"m 117 337 l 26 337 l 199 728 l 270 728 l 443 337 l 354 337 l 234 628 z"},"0":{"x_min":0,"x_max":742,"ha":742,"o":"m 713 -104 q 713 -139 677 -168 q 645 -193 617 -193 l 93 -193 q 56 -193 26 -164 q -3 -134 -3 -97 l -3 707 q -3 745 23 774 q 49 803 78 803 l 631 803 q 665 803 691 771 q 713 744 713 722 z m 537 303 q 537 389 504 407 q 480 420 362 420 q 345 420 329 420 q 313 420 299 421 q 241 421 221 403 q 196 380 196 305 q 196 229 215 210 q 234 191 294 191 q 307 191 322 191 q 336 191 352 192 l 362 192 q 388 192 409 191 q 430 190 450 189 q 499 189 516 208 q 537 231 537 303 z"},"F":{"x_min":0,"x_max":723,"ha":723,"o":"m 704 641 q 704 566 676 526 q 649 485 596 485 l 185 485 l 185 420 l 560 420 q 592 420 615 395 q 638 370 638 342 q 638 309 612 286 q 585 262 560 262 l 185 262 l 185 -120 q 185 -143 163 -167 q 135 -198 94 -198 q 55 -198 26 -169 q -3 -140 -3 -105 l -3 637 q -3 707 57 759 q 107 803 149 803 l 603 803 q 650 803 677 758 q 704 714 704 641 z"},"`":{"x_min":0,"x_max":304,"ha":304,"o":"m 90 546 q 44 597 27 624 q 0 668 6 704 q 11 739 42 745 q 74 751 118 732 q 122 731 131 725 q 180 692 228 579 q 272 476 266 442 q 265 435 260 438 q 255 440 246 454 q 216 500 191 517 q 170 530 144 527 q 118 524 104 533 q 94 540 90 546 z"},"k":{"x_min":0,"x_max":727,"ha":727,"o":"m 694 473 q 694 454 695 424 q 696 394 696 384 q 696 334 678 316 q 661 299 601 299 l 601 227 q 653 201 658 197 q 681 180 681 117 q 681 99 680 83 q 680 67 680 53 l 680 41 q 680 -114 661 -156 q 642 -199 565 -199 l 421 -199 q 392 -199 362 -168 q 328 -133 328 -91 l 328 105 l 198 105 l 198 -119 q 198 -149 170 -174 q 143 -198 98 -198 q 57 -198 29 -178 q -3 -155 -3 -119 l -3 828 q -3 854 21 878 q 51 908 98 908 q 139 908 168 884 q 198 861 198 828 l 198 357 l 328 357 l 328 544 q 328 621 393 648 q 436 666 522 666 q 671 666 688 600 q 694 577 694 473 z"},"u":{"x_min":0,"x_max":734,"ha":734,"o":"m 701 -54 q 701 -96 663 -144 q 620 -199 570 -199 l 99 -199 q 56 -199 24 -160 q -3 -127 -3 -97 l -3 549 q -3 581 24 606 q 50 630 95 630 q 138 630 169 601 q 200 572 200 535 l 200 172 l 316 172 l 316 520 q 316 573 366 602 q 416 630 500 630 q 620 630 669 578 q 701 544 701 491 z"},"]":{"x_min":0,"x_max":225,"ha":225,"o":"m 199 -198 l 2 -198 l 2 -95 l 108 -95 l 108 695 l 2 695 l 2 795 l 199 795 z"},"U":{"x_min":0,"x_max":754,"ha":754,"o":"m 718 -73 q 718 -149 642 -180 q 587 -202 483 -202 q 458 -202 428 -200 q 398 -199 364 -198 q 335 -198 287 -200 q 239 -201 237 -201 q 94 -201 41 -156 q -3 -119 -3 -44 l -3 707 q -3 740 16 766 q 43 804 99 804 q 138 804 170 780 q 203 756 203 722 l 203 178 l 358 178 l 358 715 q 358 770 405 790 q 438 804 505 804 l 534 804 q 647 804 682 780 q 718 756 718 707 z"},"o":{"x_min":0,"x_max":761,"ha":761,"o":"m 710 -85 q 710 -158 655 -181 q 612 -199 491 -199 l 476 -199 l 463 -199 l 451 -199 q 432 -199 412 -198 q 392 -198 372 -198 l 360 -198 q 326 -198 270 -199 q 214 -200 193 -200 q 85 -200 46 -176 q -3 -146 -3 -56 l -3 526 q -3 569 35 606 q 73 643 106 643 l 601 643 q 629 643 667 610 q 710 573 710 534 z m 383 61 l 383 257 l 215 257 l 215 -12 l 317 -12 q 351 7 361 16 q 383 35 383 61 z"},"N":{"x_min":0,"x_max":765,"ha":765,"o":"m 730 -87 q 730 -164 660 -190 q 622 -204 541 -204 q 449 -204 406 -183 q 352 -157 352 -94 l 352 477 l 212 477 l 212 -116 q 212 -145 188 -171 q 158 -204 108 -204 q 62 -204 31 -173 q 4 -146 4 -116 l 4 699 q 4 742 45 775 q 80 803 108 803 l 582 803 q 633 803 683 745 q 730 690 730 640 z"},"+":{"x_min":0,"x_max":640,"ha":640,"o":"m 278 -228 l 278 231 q 278 269 300 305 q 322 341 340 341 q 353 341 356 315 l 356 -150 q 357 -153 357 -161 q 357 -187 333 -220 q 309 -254 292 -254 q 278 -254 278 -228 z m 53 81 l 512 81 q 550 81 586 59 q 622 37 622 19 q 622 6 596 3 l 131 3 q 128 2 120 2 q 94 2 60 26 q 27 50 27 67 q 27 81 53 81 z"},"G":{"x_min":0,"x_max":746,"ha":746,"o":"m 707 -300 l 580 -300 q 543 -300 524 -295 q 505 -290 488 -268 q 478 -255 476 -234 q 473 -214 472 -196 l 122 -196 q 80 -196 40 -158 q -3 -117 -3 -64 l -3 668 q -3 725 42 766 q 83 803 125 803 l 558 803 q 600 803 631 767 q 658 736 658 711 l 658 533 q 658 493 613 464 q 577 441 551 441 l 182 441 l 182 220 l 459 220 l 459 341 l 636 341 q 669 322 686 303 q 707 279 707 249 z"},"q":{"x_min":0,"x_max":761,"ha":761,"o":"m 738 -231 q 738 -327 713 -367 q 692 -400 652 -400 l 452 -400 q 425 -400 392 -367 q 359 -334 359 -299 l 359 151 l 516 151 l 516 252 l 209 252 l 209 151 q 308 151 308 77 q 308 25 271 6 q 248 -6 201 -6 l 176 -6 q 69 -6 33 34 q 4 66 4 149 q 4 169 6 222 q 8 276 8 288 q 8 301 7 336 q 6 372 6 392 q 6 512 39 557 q 67 595 123 595 l 595 595 q 680 595 716 509 q 741 449 741 352 q 741 325 740 308 q 739 291 738 277 q 738 122 730 85 q 710 -6 545 -6 l 545 -70 q 673 -70 706 -98 q 738 -125 738 -231 z"},"d":{"x_min":0,"x_max":750,"ha":750,"o":"m 718 -80 q 718 -127 679 -167 q 645 -202 622 -202 l 115 -202 q 81 -202 39 -156 q -3 -111 -3 -73 l -3 545 q -3 584 36 620 q 75 656 107 656 l 505 656 l 505 759 q 505 905 521 938 q 537 972 611 972 q 654 972 686 944 q 718 916 718 875 z m 380 -6 l 380 244 l 262 244 q 252 235 247 230 q 232 213 232 200 l 232 16 q 248 7 262 -6 z"},"1":{"x_min":0,"x_max":410,"ha":410,"o":"m 373 -75 q 373 -142 314 -175 q 266 -202 187 -202 q 84 -202 36 -155 q 2 -122 2 -75 l 2 377 q 2 438 62 459 q 96 471 162 471 q 162 535 164 616 q 165 697 165 707 q 165 734 189 762 q 219 798 268 798 q 310 798 342 770 q 373 741 373 707 z"},"5":{"x_min":0,"x_max":738,"ha":738,"o":"m 718 664 q 718 597 707 570 q 691 531 644 531 l 225 531 l 225 457 l 586 457 q 676 457 698 401 q 711 368 711 230 q 711 217 712 191 q 713 165 713 152 q 713 83 694 53 q 667 11 595 11 q 595 -141 566 -175 q 536 -209 410 -209 l 398 -209 l 387 -209 q 368 -209 348 -208 q 328 -208 307 -208 l 294 -208 q 98 -208 55 -194 q 4 -177 4 -107 l 4 133 q 4 158 32 179 q 59 200 85 200 l 527 200 l 527 266 l 122 266 q 80 266 42 302 q 4 339 4 369 l 4 693 q 4 726 42 764 q 81 803 122 803 l 637 803 q 676 803 695 776 q 718 744 718 664 z"}}}
